<svg xmlns="http://www.w3.org/2000/svg" viewBox="0 0 96 96"><defs><clipPath id="c1"><path d="M20 12 H76 Q88 12 88 24 V72 Q88 84 76 84 H20 Q8 84 8 72 V24 Q8 12 20 12Z"/></clipPath></defs><g clip-path="url(#c1)"><rect x="-100" y="-100" width="1200" height="1800" rx="0" fill="#6E4428"/><path d="M20 12 H76 Q88 12 88 24 V72 Q88 84 76 84 H20 Q8 84 8 72 V24 Q8 12 20 12Z" fill="#8A5A36" transform="translate(-3 -4)"/></g><path d="M20 12 H76 Q88 12 88 24 V72 Q88 84 76 84 H20 Q8 84 8 72 V24 Q8 12 20 12Z" fill="none" stroke="#3B2A4A" stroke-width="4.5" stroke-linejoin="round" stroke-linecap="round"/><rect x="17" y="21" width="62" height="54" rx="6" fill="#FFF1D6" stroke="#3B2A4A" stroke-width="3.5" stroke-linejoin="round" stroke-linecap="round"/><path d="M17 33 H79" fill="none" stroke="#A06E46" stroke-width="3" stroke-linejoin="round" stroke-linecap="round"/><path d="M17 48 H79" fill="none" stroke="#A06E46" stroke-width="3" stroke-linejoin="round" stroke-linecap="round"/><path d="M17 63 H79" fill="none" stroke="#A06E46" stroke-width="3" stroke-linejoin="round" stroke-linecap="round"/><circle cx="27" cy="33" r="6.5" fill="#FF8A4C" stroke="#3B2A4A" stroke-width="3" stroke-linejoin="round" stroke-linecap="round"/><circle cx="25" cy="31" r="1.8" fill="#FFFFFF" fill-opacity="0.8"/><circle cx="39" cy="33" r="6.5" fill="#FF8A4C" stroke="#3B2A4A" stroke-width="3" stroke-linejoin="round" stroke-linecap="round"/><circle cx="37" cy="31" r="1.8" fill="#FFFFFF" fill-opacity="0.8"/><circle cx="51" cy="33" r="6.5" fill="#FF8A4C" stroke="#3B2A4A" stroke-width="3" stroke-linejoin="round" stroke-linecap="round"/><circle cx="49" cy="31" r="1.8" fill="#FFFFFF" fill-opacity="0.8"/><circle cx="27" cy="48" r="6.5" fill="#1BAFC2" stroke="#3B2A4A" stroke-width="3" stroke-linejoin="round" stroke-linecap="round"/><circle cx="25" cy="46" r="1.8" fill="#FFFFFF" fill-opacity="0.8"/><circle cx="39" cy="48" r="6.5" fill="#1BAFC2" stroke="#3B2A4A" stroke-width="3" stroke-linejoin="round" stroke-linecap="round"/><circle cx="37" cy="46" r="1.8" fill="#FFFFFF" fill-opacity="0.8"/><circle cx="27" cy="63" r="6.5" fill="#9B6CE8" stroke="#3B2A4A" stroke-width="3" stroke-linejoin="round" stroke-linecap="round"/><circle cx="25" cy="61" r="1.8" fill="#FFFFFF" fill-opacity="0.8"/><circle cx="39" cy="63" r="6.5" fill="#9B6CE8" stroke="#3B2A4A" stroke-width="3" stroke-linejoin="round" stroke-linecap="round"/><circle cx="37" cy="61" r="1.8" fill="#FFFFFF" fill-opacity="0.8"/><circle cx="51" cy="63" r="6.5" fill="#9B6CE8" stroke="#3B2A4A" stroke-width="3" stroke-linejoin="round" stroke-linecap="round"/><circle cx="49" cy="61" r="1.8" fill="#FFFFFF" fill-opacity="0.8"/><circle cx="63" cy="63" r="6.5" fill="#9B6CE8" stroke="#3B2A4A" stroke-width="3" stroke-linejoin="round" stroke-linecap="round"/><circle cx="61" cy="61" r="1.8" fill="#FFFFFF" fill-opacity="0.8"/></svg>
