<svg xmlns="http://www.w3.org/2000/svg" viewBox="0 0 96 96"><defs><clipPath id="c1"><path d="M29 40 H67 Q80 40 80 53 V73 Q80 86 67 86 H29 Q16 86 16 73 V53 Q16 40 29 40Z"/></clipPath></defs><path d="M30 44 V32 a18 18 0 0 1 36 0 V44" fill="none" stroke="#3B2A4A" stroke-width="18" stroke-linejoin="round" stroke-linecap="round"/><path d="M30 44 V32 a18 18 0 0 1 36 0 V44" fill="none" stroke="#8C7FA8" stroke-width="9" stroke-linejoin="round" stroke-linecap="round"/><g clip-path="url(#c1)"><rect x="-100" y="-100" width="1200" height="1800" rx="0" fill="#8F82B1"/><path d="M29 40 H67 Q80 40 80 53 V73 Q80 86 67 86 H29 Q16 86 16 73 V53 Q16 40 29 40Z" fill="#B3A7CF" transform="translate(-3 -4)"/><path d="M24 50 H42" fill="none" stroke="#FFFFFF" stroke-width="4.5" stroke-linecap="round" stroke-opacity="0.6"/></g><path d="M29 40 H67 Q80 40 80 53 V73 Q80 86 67 86 H29 Q16 86 16 73 V53 Q16 40 29 40Z" fill="none" stroke="#3B2A4A" stroke-width="4.5" stroke-linejoin="round" stroke-linecap="round"/><path d="M48 54 a7 7 0 0 1 4 12.7 L55 76 H41 L44 66.7 A7 7 0 0 1 48 54Z" fill="#3B2A4A"/></svg>
