<svg xmlns="http://www.w3.org/2000/svg" viewBox="0 0 96 96"><defs><clipPath id="c1"><path d="M10 76 Q8 66 20 66 H66 Q72 66 72 58 V40 Q72 28 82 28 Q92 28 92 40 V70 Q92 82 80 82 H16 Q10 82 10 76Z"/></clipPath><clipPath id="c2"><path d="M17 46 A25 25 0 1 1 67 46 A25 25 0 1 1 17 46Z"/></clipPath></defs><path d="M78 30 L74 14 M86 30 L90 15" fill="none" stroke="#3B2A4A" stroke-width="9.5" stroke-linejoin="round" stroke-linecap="round"/><path d="M78 30 L74 14 M86 30 L90 15" fill="none" stroke="#F2C94C" stroke-width="3.5" stroke-linejoin="round" stroke-linecap="round"/><circle cx="73" cy="12" r="5" fill="#3B2418"/><circle cx="91" cy="13" r="5" fill="#3B2418"/><g clip-path="url(#c1)"><rect x="-100" y="-100" width="1200" height="1800" rx="0" fill="#E0B544"/><path d="M10 76 Q8 66 20 66 H66 Q72 66 72 58 V40 Q72 28 82 28 Q92 28 92 40 V70 Q92 82 80 82 H16 Q10 82 10 76Z" fill="#F7D774" transform="translate(-3 -4)"/><path d="M18 72 H44" fill="none" stroke="#FFFFFF" stroke-width="3.5" stroke-linecap="round" stroke-opacity="0.6"/></g><path d="M10 76 Q8 66 20 66 H66 Q72 66 72 58 V40 Q72 28 82 28 Q92 28 92 40 V70 Q92 82 80 82 H16 Q10 82 10 76Z" fill="none" stroke="#3B2A4A" stroke-width="4.5" stroke-linejoin="round" stroke-linecap="round"/><circle cx="84" cy="44" r="2.6" fill="#3B2418"/><path d="M80 52 Q84 55 88 52" fill="none" stroke="#3B2418" stroke-width="2.5" stroke-linejoin="round" stroke-linecap="round"/><g clip-path="url(#c2)"><rect x="-100" y="-100" width="1200" height="1800" rx="0" fill="#E0662C"/><path d="M17 46 A25 25 0 1 1 67 46 A25 25 0 1 1 17 46Z" fill="#FF8A4C" transform="translate(-3 -4)"/></g><path d="M17 46 A25 25 0 1 1 67 46 A25 25 0 1 1 17 46Z" fill="none" stroke="#3B2A4A" stroke-width="4.5" stroke-linejoin="round" stroke-linecap="round"/><path d="M42 46 m-3 0 a4 4 0 1 1 5 4 a9 9 0 1 1 -12 -10 a15 15 0 1 1 -2 20" fill="none" stroke="#B8501E" stroke-width="4" stroke-linejoin="round" stroke-linecap="round"/><path d="M24 36 Q28 28 36 25" fill="none" stroke="#FFFFFF" stroke-width="4" stroke-linecap="round" stroke-opacity="0.6"/></svg>
