<svg xmlns="http://www.w3.org/2000/svg" viewBox="0 0 96 96"><defs><clipPath id="c1"><path d="M22 30 Q44 26 58 14 Q66 10 68 20 V76 Q66 86 58 82 Q44 70 22 66Z"/></clipPath><clipPath id="c2"><path d="M7 48 A17 17 0 1 1 41 48 A17 17 0 1 1 7 48Z"/></clipPath></defs><g transform="translate(0.8 4.8) scale(0.9)"><g clip-path="url(#c1)"><rect x="-100" y="-100" width="1200" height="1800" rx="0" fill="#E27A50"/><path d="M22 30 Q44 26 58 14 Q66 10 68 20 V76 Q66 86 58 82 Q44 70 22 66Z" fill="#FFA27A" transform="translate(-3 -4)"/><path d="M36 30 V66 M48 24 V72" fill="none" stroke="#E27A50" stroke-width="3.5" stroke-linejoin="round" stroke-linecap="round"/><path d="M28 36 Q42 34 54 24" fill="none" stroke="#FFFFFF" stroke-width="3.5" stroke-linecap="round" stroke-opacity="0.6"/></g><path d="M22 30 Q44 26 58 14 Q66 10 68 20 V76 Q66 86 58 82 Q44 70 22 66Z" fill="none" stroke="#3B2A4A" stroke-width="4.5" stroke-linejoin="round" stroke-linecap="round"/><ellipse cx="66" cy="48" rx="8" ry="30" fill="#FFD3DE" stroke="#3B2A4A" stroke-width="4.5" stroke-linejoin="round" stroke-linecap="round"/><ellipse cx="68" cy="50" rx="3.5" ry="18" fill="#F59BB4"/><g clip-path="url(#c2)"><rect x="-100" y="-100" width="1200" height="1800" rx="0" fill="#E27A50"/><path d="M7 48 A17 17 0 1 1 41 48 A17 17 0 1 1 7 48Z" fill="#FFB894" transform="translate(-3 -4)"/></g><path d="M7 48 A17 17 0 1 1 41 48 A17 17 0 1 1 7 48Z" fill="none" stroke="#3B2A4A" stroke-width="4.5" stroke-linejoin="round" stroke-linecap="round"/><path d="M24 48 m-2 0 a3 3 0 1 1 4 3 a7 7 0 1 1 -9 -8 a11 11 0 1 1 -1 15" fill="none" stroke="#C4623C" stroke-width="3.5" stroke-linejoin="round" stroke-linecap="round"/></g><path d="M68 36 Q76 48 68 60" fill="none" stroke="#3B2A4A" stroke-width="12" stroke-linejoin="round" stroke-linecap="round"/><path d="M68 36 Q76 48 68 60" fill="none" stroke="#6B4CE6" stroke-width="5" stroke-linejoin="round" stroke-linecap="round"/><path d="M77 27 Q90 48 77 69" fill="none" stroke="#3B2A4A" stroke-width="12" stroke-linejoin="round" stroke-linecap="round"/><path d="M77 27 Q90 48 77 69" fill="none" stroke="#6B4CE6" stroke-width="5" stroke-linejoin="round" stroke-linecap="round"/></svg>
