<svg xmlns="http://www.w3.org/2000/svg" viewBox="0 0 160 200"><defs><clipPath id="c1"><path d="M30 122 Q30 84 80 84 Q130 84 130 122 Q130 156 80 156 Q30 156 30 122Z"/></clipPath><clipPath id="c2"><path d="M26 4 H134 Q154 4 154 24 V170 Q154 190 134 190 H26 Q6 190 6 170 V24 Q6 4 26 4Z"/></clipPath></defs><path d="M26 8 H134 Q154 8 154 28 V176 Q154 196 134 196 H26 Q6 196 6 176 V28 Q6 8 26 8Z" fill="#E3D3B5"/><g clip-path="url(#c2)"><rect x="-100" y="-100" width="1200" height="1800" rx="0" fill="#F1DFC0"/><path d="M26 4 H134 Q154 4 154 24 V170 Q154 190 134 190 H26 Q6 190 6 170 V24 Q6 4 26 4Z" fill="#FFF6E6" transform="translate(-2 -4)"/></g><path d="M26 4 H134 Q154 4 154 24 V170 Q154 190 134 190 H26 Q6 190 6 170 V24 Q6 4 26 4Z" fill="none" stroke="#3B2A4A" stroke-width="5" stroke-linejoin="round" stroke-linecap="round"/><path d="M32 16 H128 Q142 16 142 30 V164 Q142 178 128 178 H32 Q18 178 18 164 V30 Q18 16 32 16Z" fill="#FFF2BF"/><path d="M18 132 H142 V164 Q142 178 128 178 H32 Q18 178 18 164Z" fill="#000000" fill-opacity="0.1"/><path d="M36 146 Q24 150 30 158 H58 Q56 146 44 144Z" fill="#6BB832" stroke="#3B2A4A" stroke-width="4" stroke-linejoin="round" stroke-linecap="round"/><path d="M124 146 Q136 150 130 158 H102 Q104 146 116 144Z" fill="#6BB832" stroke="#3B2A4A" stroke-width="4" stroke-linejoin="round" stroke-linecap="round"/><circle cx="56" cy="80" r="20" fill="#8BD448" stroke="#3B2A4A" stroke-width="4" stroke-linejoin="round" stroke-linecap="round"/><circle cx="104" cy="80" r="20" fill="#8BD448" stroke="#3B2A4A" stroke-width="4" stroke-linejoin="round" stroke-linecap="round"/><g clip-path="url(#c1)"><rect x="-100" y="-100" width="1200" height="1800" rx="0" fill="#6BB832"/><path d="M30 122 Q30 84 80 84 Q130 84 130 122 Q130 156 80 156 Q30 156 30 122Z" fill="#8BD448" transform="translate(-3 -4)"/><ellipse cx="80" cy="138" rx="30" ry="16" fill="#D4F2A8"/></g><path d="M30 122 Q30 84 80 84 Q130 84 130 122 Q130 156 80 156 Q30 156 30 122Z" fill="none" stroke="#3B2A4A" stroke-width="4" stroke-linejoin="round" stroke-linecap="round"/><path d="M42 92 Q56 70 70 92Z" fill="#8BD448"/><path d="M90 92 Q104 70 118 92Z" fill="#8BD448"/><circle cx="56" cy="78" r="11" fill="#FFFFFF" stroke="#3B2A4A" stroke-width="4" stroke-linejoin="round" stroke-linecap="round"/><circle cx="56" cy="79" r="6" fill="#3B2418"/><circle cx="53.9" cy="76.6" r="2.3" fill="#FFFFFF"/><circle cx="104" cy="78" r="11" fill="#FFFFFF" stroke="#3B2A4A" stroke-width="4" stroke-linejoin="round" stroke-linecap="round"/><circle cx="104" cy="79" r="6" fill="#3B2418"/><circle cx="101.9" cy="76.6" r="2.3" fill="#FFFFFF"/><path d="M52 110 Q80 132 108 110" fill="none" stroke="#3B2418" stroke-width="4" stroke-linejoin="round" stroke-linecap="round"/><ellipse cx="46" cy="112" rx="7" ry="4.2" fill="#FF7FA3" fill-opacity="0.6"/><ellipse cx="114" cy="112" rx="7" ry="4.2" fill="#FF7FA3" fill-opacity="0.6"/></svg>
